<svg xmlns="http://www.w3.org/2000/svg" viewBox="0 0 52.083 52.083">
	<path d="M46.446,19.230 C44.166,21.513 41.134,22.770 37.909,22.770 C37.906,22.770 37.903,22.770 37.900,22.770 C36.923,22.769 35.494,22.455 34.663,22.249 L31.682,25.233 C31.461,25.454 31.171,25.564 30.882,25.564 C30.592,25.564 30.303,25.454 30.082,25.233 C29.640,24.790 29.640,24.074 30.082,23.632 L33.521,20.190 C33.810,19.901 34.231,19.790 34.624,19.900 C35.230,20.068 37.000,20.505 37.902,20.505 C37.904,20.505 37.907,20.505 37.909,20.505 C40.530,20.505 42.993,19.484 44.846,17.629 C46.701,15.773 47.722,13.305 47.722,10.679 C47.722,7.843 46.487,5.171 44.404,3.325 L44.405,10.735 C44.405,11.107 44.222,11.455 43.917,11.666 L38.548,15.384 C38.161,15.652 37.648,15.652 37.260,15.383 L31.893,11.664 C31.588,11.453 31.406,11.105 31.406,10.734 L31.403,3.324 C29.320,5.171 28.085,7.845 28.085,10.684 C28.085,12.079 28.401,13.465 29.024,14.806 C29.225,15.237 29.134,15.747 28.798,16.083 L27.864,17.019 C27.423,17.461 26.706,17.461 26.265,17.019 C25.823,16.577 25.823,15.860 26.264,15.418 L26.658,15.024 C26.103,13.611 25.822,12.154 25.822,10.684 C25.822,6.331 28.181,2.294 31.977,0.148 C32.327,-0.050 32.756,-0.047 33.103,0.156 C33.450,0.359 33.664,0.731 33.664,1.133 L33.668,10.140 L37.904,13.076 L42.142,10.142 L42.141,1.136 C42.141,0.733 42.355,0.361 42.702,0.158 C43.049,-0.045 43.478,-0.048 43.828,0.150 C47.625,2.294 49.984,6.328 49.985,10.679 C49.985,13.909 48.728,16.946 46.446,19.230 ZM28.854,20.166 C29.296,20.608 29.295,21.325 28.854,21.767 L26.960,23.662 L38.678,35.389 L41.922,36.566 C42.077,36.623 42.219,36.713 42.336,36.830 L48.911,43.410 C49.123,43.622 49.242,43.910 49.242,44.210 C49.242,44.511 49.123,44.799 48.911,45.011 L44.633,49.292 C44.412,49.513 44.122,49.624 43.833,49.624 C43.543,49.624 43.254,49.513 43.033,49.292 L36.458,42.712 C36.341,42.595 36.251,42.454 36.194,42.298 L35.018,39.051 L23.300,27.325 L21.406,29.220 C20.965,29.662 20.249,29.662 19.807,29.220 C19.471,28.884 19.391,28.391 19.564,27.979 L1.840,10.242 C0.765,9.167 0.172,7.736 0.171,6.215 C0.170,4.692 0.762,3.260 1.839,2.183 C2.914,1.108 4.343,0.517 5.863,0.517 C5.866,0.517 5.868,0.517 5.870,0.517 C7.390,0.519 8.818,1.112 9.890,2.189 L27.614,19.923 C28.025,19.750 28.518,19.831 28.854,20.166 ZM36.796,37.628 C36.913,37.746 37.003,37.887 37.059,38.043 L38.236,41.289 L43.833,46.891 L46.511,44.210 L40.914,38.609 L37.670,37.432 C37.514,37.375 37.373,37.285 37.256,37.168 L25.360,25.263 L24.900,25.724 L36.796,37.628 ZM8.289,3.788 C7.642,3.139 6.783,2.782 5.867,2.781 C5.866,2.781 5.865,2.781 5.863,2.781 C4.947,2.781 4.086,3.137 3.438,3.785 C2.790,4.434 2.433,5.296 2.433,6.214 C2.434,7.131 2.791,7.993 3.440,8.641 L21.105,26.319 L24.553,22.869 C24.555,22.867 24.558,22.864 24.560,22.862 C24.562,22.859 24.565,22.857 24.567,22.855 L25.955,21.466 L8.289,3.788 ZM21.463,22.956 C21.173,22.956 20.884,22.845 20.663,22.624 L5.058,7.008 C4.616,6.565 4.616,5.849 5.058,5.406 C5.500,4.965 6.216,4.965 6.658,5.406 L22.263,21.023 C22.705,21.465 22.705,22.182 22.263,22.624 C22.042,22.845 21.752,22.956 21.463,22.956 ZM4.369,44.948 C4.367,44.947 4.366,44.946 4.365,44.944 C3.824,44.399 3.827,43.515 4.371,42.975 C4.629,42.715 4.979,42.569 5.352,42.569 C5.352,42.569 5.352,42.569 5.353,42.569 C5.725,42.569 6.075,42.714 6.338,42.978 C6.879,43.518 6.881,44.401 6.339,44.946 C6.066,45.218 5.709,45.354 5.352,45.354 C4.995,45.354 4.640,45.219 4.369,44.948 ZM15.062,26.629 C15.503,26.187 16.220,26.187 16.661,26.629 C17.103,27.071 17.103,27.788 16.661,28.230 L3.164,41.739 C2.574,42.327 2.249,43.110 2.248,43.943 C2.247,44.779 2.571,45.565 3.161,46.155 C3.750,46.745 4.534,47.071 5.368,47.071 C5.369,47.071 5.369,47.071 5.370,47.071 C6.203,47.070 6.987,46.745 7.577,46.154 L23.269,30.450 C23.711,30.008 24.427,30.008 24.869,30.450 C25.311,30.892 25.311,31.609 24.869,32.051 L9.177,47.755 C8.160,48.773 6.809,49.334 5.371,49.335 C5.370,49.335 5.369,49.335 5.368,49.335 C3.930,49.335 2.578,48.774 1.561,47.756 C0.543,46.737 -0.016,45.382 -0.014,43.941 C-0.012,42.502 0.549,41.151 1.566,40.136 L15.062,26.629 Z" />
</svg>