<svg xmlns="http://www.w3.org/2000/svg" viewBox="0 0 83 52">
	<path d="M79.977,49.814 L77.711,49.814 L65.299,32.668 L52.920,49.814 L50.654,49.814 L64.183,31.081 L51.330,13.293 L53.630,13.293 L65.333,29.495 L77.001,13.293 L79.301,13.293 L66.449,31.081 L79.977,49.814 ZM40.778,50.017 C40.259,50.017 39.819,49.836 39.459,49.477 C39.098,49.117 38.918,48.678 38.918,48.160 C38.918,47.643 39.098,47.198 39.459,46.827 C39.819,46.456 40.259,46.270 40.778,46.270 C41.296,46.270 41.742,46.456 42.114,46.827 C42.486,47.198 42.672,47.643 42.672,48.160 C42.672,48.678 42.486,49.117 42.114,49.477 C41.742,49.836 41.296,50.017 40.778,50.017 ZM1.206,47.992 L17.339,29.427 C18.872,27.672 20.191,26.041 21.296,24.533 C22.401,23.026 23.314,21.613 24.036,20.297 C24.757,18.981 25.293,17.738 25.643,16.567 C25.992,15.398 26.167,14.272 26.167,13.192 C26.167,11.459 25.913,9.890 25.406,8.483 C24.899,7.077 24.138,5.879 23.123,4.889 C22.108,3.899 20.851,3.139 19.352,2.610 C17.852,2.082 16.122,1.817 14.160,1.817 C12.401,1.817 10.766,2.138 9.256,2.779 C7.745,3.420 6.437,4.310 5.333,5.446 C4.228,6.582 3.365,7.926 2.745,9.479 C2.125,11.032 1.815,12.719 1.815,14.542 L-0.011,14.542 C-0.011,12.562 0.332,10.689 1.020,8.922 C1.708,7.156 2.678,5.609 3.929,4.281 C5.180,2.954 6.674,1.907 8.410,1.142 C10.146,0.377 12.063,-0.006 14.160,-0.006 C16.279,-0.006 18.190,0.276 19.893,0.838 C21.595,1.401 23.049,2.239 24.256,3.353 C25.462,4.467 26.392,5.845 27.046,7.488 C27.700,9.130 28.027,11.032 28.027,13.192 C28.027,14.723 27.734,16.252 27.148,17.782 C26.561,19.313 25.789,20.843 24.831,22.373 C23.872,23.903 22.785,25.422 21.567,26.930 C20.349,28.437 19.120,29.923 17.881,31.385 L3.608,47.992 L30.665,47.992 L30.665,49.814 L1.206,49.814 L1.206,47.992 Z" />
</svg>