<svg xmlns="http://www.w3.org/2000/svg" viewBox="0 0 36 50">
	<path d="M36.277,3.625 C35.836,3.183 35.120,3.182 34.678,3.623 L33.334,4.964 C33.080,4.825 32.808,4.714 32.525,4.632 L32.525,2.760 C32.525,2.135 32.019,1.629 31.394,1.629 C30.770,1.629 30.264,2.135 30.264,2.760 L30.264,4.632 C29.974,4.716 29.698,4.830 29.439,4.972 L28.138,3.671 C27.697,3.229 26.981,3.229 26.539,3.671 C26.098,4.113 26.098,4.829 26.539,5.271 L27.834,6.566 C27.506,7.154 27.318,7.830 27.318,8.550 L27.318,16.452 C27.318,16.478 27.296,16.500 27.271,16.500 L25.079,16.500 L25.079,6.801 C25.079,3.051 22.029,-0.000 18.281,-0.000 C14.532,-0.000 11.483,3.051 11.483,6.801 L11.483,22.221 L9.291,22.221 C9.266,22.221 9.244,22.198 9.244,22.173 L9.244,16.235 C9.244,15.509 9.052,14.828 8.719,14.237 L10.048,12.910 C10.490,12.469 10.491,11.753 10.050,11.310 C9.609,10.868 8.893,10.867 8.451,11.308 L7.108,12.649 C6.853,12.511 6.582,12.400 6.298,12.318 L6.298,10.445 C6.298,9.820 5.792,9.314 5.167,9.314 C4.543,9.314 4.037,9.820 4.037,10.445 L4.037,12.318 C3.748,12.401 3.471,12.515 3.212,12.658 L1.912,11.356 C1.470,10.914 0.754,10.914 0.313,11.356 C-0.129,11.798 -0.129,12.514 0.313,12.956 L1.608,14.252 C1.279,14.839 1.091,15.515 1.091,16.235 L1.091,22.173 C1.091,26.697 4.770,30.377 9.291,30.377 L11.483,30.377 L11.483,34.103 L10.010,34.103 L8.083,34.103 C7.458,34.103 6.952,34.609 6.952,35.234 C6.952,35.859 7.458,36.365 8.083,36.365 L8.970,36.365 L10.014,48.963 C10.063,49.549 10.553,50.000 11.141,50.000 L25.384,50.000 C25.972,50.000 26.462,49.549 26.511,48.963 L27.249,40.068 C27.316,39.923 27.355,39.761 27.355,39.590 C27.355,39.486 27.340,39.384 27.313,39.288 L27.556,36.365 L28.160,36.365 C28.785,36.365 29.291,35.859 29.291,35.234 C29.291,34.609 28.785,34.102 28.160,34.102 L26.515,34.102 L25.079,34.102 L25.079,24.656 L27.271,24.656 C31.792,24.656 35.470,20.976 35.470,16.452 L35.470,8.550 C35.470,7.824 35.279,7.143 34.945,6.552 L36.275,5.225 C36.717,4.784 36.718,4.067 36.277,3.625 ZM25.113,38.459 L17.503,38.459 C16.878,38.459 16.372,38.966 16.372,39.590 C16.372,40.215 16.878,40.722 17.503,40.722 L24.925,40.722 L24.343,47.738 L12.182,47.738 L11.600,40.722 L14.111,40.722 C14.735,40.722 15.241,40.215 15.241,39.590 C15.241,38.966 14.735,38.459 14.111,38.459 L11.412,38.459 L11.239,36.365 L25.286,36.365 L25.113,38.459 ZM33.209,16.452 C33.209,19.728 30.545,22.394 27.271,22.394 L23.948,22.394 C23.324,22.394 22.818,22.900 22.818,23.525 L22.818,34.102 L13.744,34.102 L13.744,29.246 C13.744,28.621 13.238,28.114 12.613,28.114 L9.291,28.114 C6.017,28.114 3.353,25.449 3.353,22.173 L3.353,16.235 C3.353,15.810 3.501,15.419 3.746,15.109 C3.808,15.068 3.867,15.021 3.921,14.966 C3.972,14.915 4.016,14.861 4.055,14.803 C4.363,14.564 4.748,14.419 5.168,14.419 C6.168,14.419 6.982,15.234 6.982,16.235 L6.982,22.173 C6.982,23.447 8.018,24.483 9.291,24.483 L12.613,24.483 C13.238,24.483 13.744,23.976 13.744,23.352 L13.744,6.801 C13.744,4.298 15.779,2.262 18.281,2.262 C20.782,2.262 22.818,4.298 22.818,6.801 L22.818,17.631 C22.818,18.256 23.324,18.762 23.948,18.762 L27.271,18.762 C28.544,18.762 29.579,17.726 29.579,16.452 L29.579,8.550 C29.579,8.125 29.727,7.734 29.973,7.424 C30.035,7.383 30.093,7.336 30.148,7.281 C30.198,7.230 30.243,7.175 30.282,7.118 C30.589,6.878 30.975,6.734 31.394,6.734 C32.395,6.734 33.209,7.548 33.209,8.550 L33.209,16.452 L33.209,16.452 Z" />
</svg>